<?xml version="1.0" standalone="no"?>
<!DOCTYPE svg PUBLIC "-//W3C//DTD SVG 20010904//EN"
 "http://www.w3.org/TR/2001/REC-SVG-20010904/DTD/svg10.dtd">
<svg version="1.0" xmlns="http://www.w3.org/2000/svg"
 width="1200.000000pt" height="1200.000000pt" viewBox="0 0 1200.000000 1200.000000"
 preserveAspectRatio="xMidYMid meet">

<g transform="translate(0.000000,1200.000000) scale(0.100000,-0.100000)"
fill="#000000" stroke="none">
<path d="M6810 10304 c-14 -2 -65 -12 -115 -20 -287 -50 -648 -206 -960 -415
-188 -125 -270 -194 -708 -592 l-195 -177 -244 -35 c-886 -127 -1448 -280
-2028 -550 -521 -242 -941 -558 -1197 -899 -187 -250 -323 -596 -333 -848 0
-10 -254 -188 -351 -246 -47 -28 -124 -69 -170 -91 -170 -79 -209 -129 -209
-269 0 -116 31 -181 103 -219 41 -21 149 -27 248 -14 88 12 300 60 378 87 212
72 470 134 664 159 127 17 532 35 806 35 l184 0 91 -88 c164 -159 291 -248
479 -337 258 -122 446 -163 867 -188 34 -2 96 -20 163 -46 218 -85 501 -148
767 -172 179 -16 506 -7 577 15 80 25 95 71 42 130 -39 45 -93 75 -304 170
-93 42 -205 98 -247 124 -163 99 -334 272 -457 460 -42 64 -51 86 -41 92 44
27 834 32 1075 7 865 -93 1616 -367 2217 -812 232 -172 528 -453 727 -690 308
-369 648 -889 871 -1334 77 -154 81 -165 69 -193 -7 -17 -108 -125 -225 -242
-116 -116 -238 -247 -271 -291 -156 -214 -246 -486 -273 -834 -14 -168 -8
-243 23 -271 47 -45 87 -21 157 95 116 191 252 343 391 435 72 49 130 76 369
176 135 56 180 93 255 210 29 45 57 84 62 87 4 3 45 -13 90 -35 141 -68 194
-64 423 32 350 147 636 202 940 181 153 -11 170 -5 170 55 0 94 -309 382 -539
502 -180 94 -288 120 -616 147 -110 9 -213 20 -230 24 -59 15 -80 72 -125 341
-69 410 -231 1015 -393 1465 -310 860 -760 1515 -1472 2141 -212 187 -550 436
-872 644 -535 345 -612 401 -688 503 -108 143 -139 247 -132 437 5 137 28 228
92 365 86 181 282 419 482 586 45 38 85 78 88 89 10 31 -20 69 -73 93 -41 18
-69 21 -212 23 -91 1 -176 0 -190 -2z m348 -74 c29 -7 52 -15 50 -20 -2 -4
-23 -24 -48 -45 -68 -56 -205 -191 -273 -270 -131 -151 -266 -394 -308 -551
-12 -45 -23 -127 -26 -191 -7 -135 18 -263 73 -372 42 -83 192 -250 267 -296
170 -104 745 -483 887 -583 123 -87 352 -269 495 -391 120 -103 413 -393 517
-511 476 -541 785 -1110 1036 -1905 135 -428 223 -779 286 -1141 19 -109 41
-227 49 -260 14 -60 14 -63 -13 -132 -42 -108 -58 -194 -65 -337 -7 -164 -22
-259 -44 -286 l-18 -22 -22 24 c-28 30 -52 75 -108 209 -68 160 -72 172 -73
221 0 54 -35 257 -50 290 l-11 24 6 -25 c11 -54 36 -301 32 -318 -5 -24 -29
62 -72 263 -53 248 -106 467 -112 461 -3 -2 10 -69 27 -148 37 -163 101 -540
93 -548 -15 -15 -42 53 -72 181 -36 161 -130 529 -160 629 -28 92 -25 56 3
-58 14 -53 40 -178 60 -277 66 -343 61 -366 -14 -65 -54 218 -161 593 -167
587 -2 -2 12 -69 31 -148 41 -171 80 -378 73 -385 -2 -3 -16 44 -31 103 -39
161 -139 513 -143 509 -2 -2 9 -62 26 -132 16 -71 35 -157 41 -191 6 -34 17
-84 25 -110 8 -26 15 -52 14 -58 -1 -19 -30 70 -70 215 -41 151 -178 592 -185
599 -8 8 -4 -14 12 -64 28 -93 165 -647 160 -652 -2 -2 -51 139 -109 314 -109
328 -197 576 -203 570 -2 -1 15 -54 37 -117 40 -113 129 -441 128 -470 0 -8
-39 104 -88 250 -48 146 -92 274 -99 285 -14 25 -15 15 -1 -22 19 -50 119
-406 115 -410 -2 -3 -14 26 -26 64 -53 159 -291 708 -320 737 -6 6 9 -32 33
-84 68 -147 283 -728 272 -738 -4 -4 -57 108 -110 233 -102 243 -272 578 -402
798 -81 135 -229 339 -307 422 -26 28 -9 1 39 -60 159 -202 339 -491 429 -687
65 -140 185 -431 172 -417 -7 8 -72 124 -145 258 -122 225 -300 525 -308 517
-2 -1 21 -44 51 -93 80 -132 292 -560 282 -570 -2 -2 -47 74 -102 169 -182
321 -371 599 -514 758 -22 25 7 -17 64 -93 102 -133 227 -332 356 -565 34 -62
60 -115 58 -117 -5 -5 -81 99 -238 330 -192 280 -345 477 -603 775 -232 267
-377 389 -702 592 -121 76 -405 232 -410 226 -2 -2 76 -48 173 -103 201 -114
463 -284 573 -373 178 -144 534 -538 719 -798 98 -138 244 -364 238 -369 -4
-4 -104 119 -282 350 -47 61 -111 137 -143 171 -32 33 -49 49 -37 35 84 -104
228 -311 264 -381 11 -22 11 -23 -2 -10 -8 8 -73 87 -143 175 -209 260 -437
519 -490 555 -11 8 12 -20 52 -61 140 -146 300 -349 389 -494 l18 -30 -33 30
c-18 17 -86 91 -150 165 -223 259 -573 590 -781 737 -338 241 -783 457 -1225
598 -94 30 -361 92 -425 99 -35 4 -31 2 20 -10 267 -64 331 -81 455 -121 418
-135 889 -372 1200 -603 213 -158 455 -400 654 -655 17 -21 -20 13 -229 206
-195 181 -347 309 -369 309 -6 0 -11 4 -11 9 0 11 -185 154 -295 228 -151 100
-505 303 -505 289 0 -2 66 -41 148 -86 288 -162 500 -316 781 -569 158 -143
259 -242 316 -310 35 -43 -23 -3 -180 124 -217 176 -628 474 -658 479 -7 1
-26 11 -42 22 -35 25 -189 115 -225 133 -24 11 -24 11 -5 -4 11 -8 98 -67 193
-130 197 -131 334 -232 477 -354 172 -145 167 -146 -30 -2 -192 140 -297 211
-305 206 -5 -3 -10 1 -13 8 -7 18 -244 154 -253 145 -5 -5 122 -78 136 -78 5
0 10 -4 10 -10 0 -5 46 -42 103 -81 93 -67 267 -207 267 -217 0 -4 -25 11
-195 117 -204 127 -505 298 -505 288 0 -3 46 -32 103 -65 168 -98 393 -265
322 -238 -32 12 -383 215 -465 269 -102 67 -180 132 -345 287 -244 229 -314
262 -708 335 -209 38 -207 29 3 -15 295 -61 425 -105 505 -169 22 -18 112
-101 200 -185 210 -199 221 -210 348 -300 59 -43 107 -79 107 -81 0 -6 -131
55 -310 145 -430 216 -692 311 -1004 365 -102 17 -375 39 -384 31 -3 -3 4 -6
15 -6 49 0 237 -22 348 -41 255 -42 491 -116 755 -236 156 -70 413 -203 435
-224 10 -11 -9 -4 -355 126 -518 194 -866 277 -1210 289 l-135 5 154 -14 c256
-22 557 -84 836 -171 89 -28 367 -135 362 -140 -2 -2 -54 12 -117 31 -292 88
-677 160 -994 185 -149 12 -172 12 -164 4 4 -3 55 -10 115 -15 146 -12 341
-37 433 -55 116 -23 171 -36 167 -40 -2 -3 -37 3 -78 11 -221 47 -724 79 -879
57 -56 -8 -39 -10 116 -11 218 -1 304 -9 669 -62 298 -43 509 -79 502 -86 -3
-2 -42 3 -88 11 -116 22 -280 42 -504 63 -275 26 -848 25 -990 -1 -206 -38
-388 -118 -503 -222 -56 -50 -58 -51 -92 -39 -20 7 -60 24 -90 39 -48 24 -52
24 -30 5 33 -28 134 -79 158 -79 10 0 27 10 38 21 54 60 204 147 323 188 168
58 308 52 447 -19 101 -51 175 -116 239 -211 28 -41 71 -104 98 -141 26 -38
47 -70 47 -73 0 -3 -19 -6 -42 -6 l-43 -1 49 -10 c27 -5 58 -15 70 -23 19 -14
17 -15 -29 -16 -28 -1 -39 -4 -25 -6 14 -2 41 -9 60 -15 34 -11 34 -12 10 -18
-26 -8 -20 -12 30 -24 14 -4 39 -17 55 -31 l30 -25 -45 -1 -45 -1 61 -14 c34
-8 72 -25 85 -37 13 -12 32 -27 44 -33 11 -6 19 -16 18 -22 -2 -7 2 -12 8 -12
5 0 74 -31 152 -69 78 -38 192 -90 252 -115 109 -46 185 -90 192 -112 6 -17
-28 -23 -187 -35 -424 -31 -938 69 -1305 254 -237 119 -396 239 -730 553 -160
150 -241 214 -271 214 -13 0 -48 8 -77 19 -88 32 -93 33 -62 14 l30 -18 -48
-3 c-63 -4 -51 -22 16 -23 l52 -2 -50 -7 c-27 -5 -72 -9 -100 -9 -34 -1 -45
-4 -36 -10 11 -7 9 -10 -10 -14 -13 -2 10 -5 51 -7 74 -2 74 -2 -66 -20 -212
-27 -252 -38 -129 -34 96 3 97 3 35 -6 -36 -5 -207 -21 -380 -35 -801 -63
-845 -70 -1270 -201 -229 -70 -371 -103 -484 -112 -125 -10 -166 -1 -210 48
-58 64 -47 72 52 44 98 -29 243 -5 429 72 161 66 624 286 933 443 592 301 537
276 610 276 36 0 97 -3 135 -7 92 -9 48 5 -105 33 -131 24 -267 22 -405 -6
-69 -14 -635 -147 -690 -162 -52 -14 9 19 95 52 237 91 427 137 751 179 179
24 191 24 285 10 126 -20 214 -15 251 12 29 22 93 100 93 114 0 4 -10 8 -22 8
-13 1 -36 3 -53 6 -110 21 -150 19 -206 -9 -34 -18 -49 -22 -41 -12 21 25 95
57 130 57 18 0 49 -7 69 -15 41 -17 46 -18 39 -6 -9 14 -93 51 -116 51 -33 0
-90 -34 -157 -93 -37 -33 -81 -61 -110 -71 -26 -9 -142 -30 -258 -46 -299 -43
-566 -114 -715 -190 -66 -34 -153 -61 -162 -52 -11 11 89 331 144 462 54 131
137 286 216 405 60 90 99 139 258 325 25 30 -9 -1 -78 -70 -263 -266 -457
-637 -543 -1042 -19 -92 -35 -100 -92 -43 -35 35 -36 37 -31 98 7 76 82 304
142 429 151 314 442 622 836 884 135 89 439 250 640 337 415 181 901 320 1450
416 475 84 496 86 785 85 586 -2 1038 -97 1610 -339 22 -9 36 -12 30 -7 -5 5
-48 26 -95 47 -326 142 -680 239 -1044 285 -135 16 -463 40 -570 40 l-29 0 29
22 c37 28 140 119 373 332 307 278 470 402 715 541 427 242 895 359 1184 295z
m-4493 -3231 c-32 -16 -55 -19 -117 -15 -42 2 -84 9 -95 16 -15 9 -12 10 17 6
110 -16 137 -17 175 -3 57 21 67 19 20 -4z m-431 -133 c-11 -8 -209 -109 -440
-224 -469 -235 -929 -450 -1037 -487 -159 -53 -278 -57 -348 -11 -45 30 -54
55 -39 100 15 46 47 68 235 165 99 50 217 122 310 187 142 100 185 126 194
118 14 -13 -187 -154 -399 -278 -158 -93 -189 -115 -206 -147 -16 -32 -19 -69
-4 -69 6 0 10 12 10 26 0 37 47 78 171 148 118 67 294 181 386 250 l62 47 64
-7 c102 -10 207 9 552 101 152 41 414 92 480 94 28 1 29 0 9 -13z m2761 -317
c116 -6 235 -14 265 -19 46 -8 40 -8 -40 -5 -52 3 -268 10 -480 16 -212 6
-387 12 -389 15 -9 8 439 4 644 -7z m-1673 -698 c126 -52 310 -98 472 -117
125 -15 226 -45 226 -66 0 -27 -342 34 -510 90 -121 41 -254 99 -292 127 -26
20 -28 20 104 -34z m6990 -2300 c29 -5 98 -13 153 -16 299 -19 453 -49 602
-120 148 -70 264 -155 411 -302 72 -73 132 -138 132 -144 0 -6 -28 11 -62 39
-72 56 -118 87 -118 79 0 -4 34 -31 76 -62 42 -31 73 -59 70 -62 -3 -3 -23 9
-46 27 -23 18 -43 30 -46 27 -3 -2 7 -14 22 -26 55 -43 4 -19 -72 35 l-79 55
60 -55 c33 -30 63 -55 68 -56 4 0 7 -4 7 -10 0 -11 -107 52 -182 107 -74 54
-57 33 32 -37 43 -35 77 -66 75 -68 -4 -4 -93 43 -142 76 -41 26 -24 5 27 -34
27 -21 48 -40 45 -42 -2 -2 -37 14 -77 37 -54 30 -64 34 -39 13 19 -15 44 -35
55 -45 21 -18 21 -18 -4 -12 -35 9 -119 49 -157 75 -53 35 -38 14 22 -31 31
-23 53 -44 51 -46 -3 -3 -40 13 -82 36 -43 22 -79 39 -81 37 -2 -2 17 -18 41
-37 56 -42 59 -56 6 -29 -39 20 -52 16 -28 -8 22 -22 -29 -14 -82 13 -28 14
-50 23 -50 21 0 -2 19 -18 42 -35 78 -58 0 -30 -92 32 -25 17 -39 23 -31 13 8
-10 35 -31 59 -48 67 -46 41 -46 -50 0 -45 23 -83 40 -85 38 -2 -2 21 -22 52
-46 31 -24 54 -45 51 -47 -4 -5 -105 46 -146 74 -14 9 0 -9 30 -41 61 -65 46
-62 -60 12 l-65 45 65 -67 c88 -90 54 -86 -89 11 -64 43 -58 35 38 -49 84 -73
30 -57 -109 34 l-75 49 80 -76 c88 -83 90 -97 5 -34 -30 23 -62 47 -70 53 -23
16 20 -34 58 -67 17 -16 32 -33 32 -38 0 -12 -41 14 -100 61 -25 20 -52 40
-60 44 -19 10 62 -69 110 -107 31 -25 32 -27 10 -21 -39 10 -119 63 -179 119
-79 74 -45 22 43 -65 42 -41 76 -78 76 -83 0 -13 -52 19 -105 64 -85 73 -91
76 -59 34 16 -22 43 -60 58 -85 l29 -45 -34 30 c-19 16 -56 50 -82 75 l-49 45
37 -68 c21 -37 35 -70 32 -73 -2 -3 -21 18 -42 46 -20 27 -39 50 -41 50 -2 0
5 -18 16 -41 31 -60 20 -65 -33 -15 -46 45 -62 49 -32 10 22 -30 18 -36 -15
-19 -40 21 -87 19 -121 -5 -15 -12 -56 -59 -89 -105 -34 -47 -63 -85 -65 -85
-2 0 17 35 41 77 41 72 50 93 40 93 -2 0 -20 -28 -40 -62 -20 -35 -46 -74 -57
-88 -16 -20 -15 -15 5 27 15 29 26 55 26 58 0 4 -34 -39 -75 -94 -41 -56 -77
-101 -79 -101 -3 0 15 33 39 74 89 151 99 184 17 57 -66 -100 -95 -126 -58
-51 27 56 24 54 -37 -21 -28 -34 -30 -29 -13 26 4 11 -5 -2 -18 -29 -13 -27
-32 -56 -41 -65 -15 -15 -15 -13 -1 27 8 23 14 42 12 42 -2 0 -22 -29 -45 -65
-23 -36 -46 -65 -50 -65 -5 0 7 29 26 65 19 36 32 65 29 65 -2 0 -21 -27 -41
-60 -48 -79 -62 -85 -29 -13 46 103 42 104 -20 4 -35 -56 -45 -40 -17 25 12
26 19 49 17 52 -7 6 -40 -64 -60 -125 -10 -29 -22 -56 -28 -60 -7 -4 -9 -1 -6
8 13 34 19 59 15 59 -3 0 -17 -20 -31 -45 -15 -25 -29 -45 -32 -45 -3 0 -3 19
1 43 6 42 6 42 -19 -16 -13 -33 -27 -61 -30 -65 -10 -9 -7 30 5 71 12 43 5 63
-10 26 -23 -61 -92 -202 -96 -197 -3 2 6 38 20 78 14 41 24 78 22 83 -1 5 -28
-46 -60 -114 -31 -67 -59 -120 -62 -117 -2 2 9 44 25 93 17 48 29 90 27 92 -2
1 -16 -30 -32 -69 -41 -106 -87 -209 -92 -204 -2 2 8 49 22 104 35 141 30 146
-15 16 -48 -141 -64 -169 -55 -99 5 43 33 188 51 265 4 18 3 21 -4 10 -13 -20
-86 -284 -106 -384 -9 -44 -18 -82 -21 -84 -16 -17 6 188 36 327 11 51 18 96
15 98 -8 9 -56 -217 -71 -342 -23 -183 -33 -211 -34 -100 -1 105 21 319 43
420 68 312 200 523 513 822 88 83 175 172 194 197 19 25 39 47 45 50 20 8 109
-40 139 -75 15 -19 41 -63 57 -99 94 -209 120 -250 157 -250 24 0 49 30 61 71
6 19 15 115 20 213 11 186 23 254 67 363 l25 63 33 -29 c22 -19 53 -33 87 -40z"/>
<path d="M7040 10108 c-99 -77 -268 -254 -339 -354 -191 -269 -276 -590 -212
-806 19 -65 57 -149 86 -191 23 -33 18 -15 -10 35 -118 210 -102 487 45 771
97 190 211 334 386 489 101 89 121 109 112 108 -2 -1 -32 -24 -68 -52z"/>
<path d="M4660 8973 c-83 -6 -304 -34 -420 -54 -526 -89 -974 -214 -1385 -384
-170 -71 -470 -213 -463 -220 3 -3 63 22 134 56 439 209 800 334 1294 447 476
109 949 162 1350 149 91 -2 152 -1 135 3 -29 7 -553 10 -645 3z"/>
<path d="M4605 8849 c-414 -34 -980 -156 -1358 -294 -418 -151 -833 -374
-1147 -615 -102 -79 -359 -329 -380 -370 -7 -14 26 16 72 65 224 237 468 421
813 613 747 415 1658 622 2628 598 491 -12 885 -80 1332 -231 249 -83 234 -79
205 -62 -48 28 -277 106 -445 151 -285 77 -553 126 -800 146 -141 11 -776 11
-920 -1z"/>
<path d="M4595 8693 c-75 -4 -409 -43 -414 -49 -7 -7 27 -4 164 11 333 38 942
38 1225 0 724 -96 1351 -334 1990 -752 502 -329 1013 -805 1346 -1253 357
-480 658 -1050 929 -1763 20 -54 39 -97 41 -94 5 5 -109 305 -179 472 -347
828 -767 1471 -1296 1983 -663 642 -1442 1098 -2231 1306 -227 60 -570 118
-802 136 -119 9 -620 11 -773 3z"/>
<path d="M4138 8633 c7 -3 16 -2 19 1 4 3 -2 6 -13 5 -11 0 -14 -3 -6 -6z"/>
<path d="M4245 8604 c-192 -17 -354 -41 -520 -74 -183 -37 -408 -91 -402 -96
2 -3 85 13 183 35 292 65 449 90 783 126 80 9 147 18 150 20 6 7 -31 5 -194
-11z"/>
<path d="M2214 8221 c-43 -21 -107 -60 -142 -86 -97 -73 -109 -101 -53 -125
34 -14 93 4 191 57 115 62 190 129 190 169 0 22 -4 24 -53 24 -41 0 -71 -9
-133 -39z m146 -5 c0 -2 -32 -25 -72 -51 -108 -72 -248 -131 -248 -106 0 15
119 97 191 131 54 25 129 40 129 26z"/>
<path d="M2421 8029 c-47 -33 -119 -88 -160 -122 -92 -74 -308 -289 -340 -337
-13 -19 19 9 70 62 135 139 276 267 406 365 99 75 121 94 111 93 -2 0 -41 -28
-87 -61z"/>
<path d="M4870 8034 c-229 -21 -625 -89 -750 -128 -70 -23 -32 -18 85 9 145
34 427 82 567 96 73 7 239 9 449 6 305 -4 347 -7 478 -31 643 -117 1207 -352
1826 -761 418 -277 685 -500 1069 -896 93 -96 147 -147 119 -114 -84 99 -519
523 -643 626 -679 567 -1469 972 -2201 1129 -239 51 -351 62 -659 65 -162 1
-315 1 -340 -1z"/>
<path d="M4660 7940 c-175 -15 -536 -68 -527 -77 3 -2 70 5 149 16 556 80 988
74 1474 -19 86 -17 159 -29 161 -26 11 11 -257 62 -487 92 -143 18 -620 27
-770 14z"/>
<path d="M6410 7918 c240 -91 360 -142 525 -223 678 -333 1318 -847 1787
-1437 100 -124 252 -348 357 -523 85 -142 101 -161 41 -50 -420 779 -1253
1560 -2135 2003 -204 102 -576 253 -617 251 -7 0 12 -10 42 -21z"/>
<path d="M7325 7903 c6 -5 91 -65 190 -131 254 -171 466 -339 739 -587 165
-149 204 -183 171 -146 -50 55 -344 324 -446 409 -132 108 -300 233 -444 329
-120 80 -229 145 -210 126z"/>
<path d="M4048 7883 c7 -3 16 -2 19 1 4 3 -2 6 -13 5 -11 0 -14 -3 -6 -6z"/>
<path d="M3145 7401 c-47 -4 34 -9 240 -13 188 -4 347 -13 405 -22 89 -14 125
-15 83 -2 -100 29 -559 53 -728 37z"/>
<path d="M2589 7246 c-50 -18 -92 -49 -134 -100 -51 -63 -43 -66 18 -9 90 85
174 113 267 90 14 -4 7 2 -15 13 -46 23 -85 24 -136 6z"/>
<path d="M2027 7080 c-224 -42 -393 -108 -607 -236 -71 -43 -127 -80 -125 -82
2 -3 39 16 82 41 121 71 326 166 441 203 56 19 164 47 240 63 150 32 127 40
-31 11z"/>
<path d="M3130 6668 c-151 -60 -318 -89 -610 -104 -208 -10 -204 -25 5 -19
194 6 364 25 454 51 91 26 277 108 236 103 -6 -1 -44 -15 -85 -31z"/>
<path d="M3945 6140 c107 -114 299 -255 430 -316 120 -55 125 -48 10 13 -156
82 -319 197 -395 278 -14 15 -38 36 -55 48 -26 17 -25 15 10 -23z"/>
<path d="M4691 5586 c3 -3 67 -14 144 -25 152 -23 472 -30 460 -11 -4 6 -74
10 -178 10 -95 0 -227 7 -292 15 -132 16 -140 17 -134 11z"/>
<path d="M9419 5321 c167 -331 321 -739 430 -1136 57 -207 68 -215 17 -13 -77
306 -199 647 -341 959 -58 126 -142 289 -151 289 -2 0 18 -44 45 -99z"/>
<path d="M9824 3640 c9 -70 71 -352 74 -337 4 21 -42 255 -63 317 -8 25 -13
34 -11 20z"/>
<path d="M1525 6617 c-71 -40 -209 -118 -305 -172 -178 -100 -227 -131 -155
-98 145 66 625 343 593 343 -2 0 -61 -33 -133 -73z"/>
<path d="M10219 3553 c24 -46 103 -71 293 -92 268 -31 455 -75 611 -144 58
-27 43 -11 -20 22 -145 72 -292 109 -572 141 -204 24 -262 38 -299 72 -24 22
-24 23 -13 1z"/>
</g>
</svg>
